<mxfile host="app.diagrams.net" agent="Mozilla/5.0 (Windows NT 10.0; Win64; x64) AppleWebKit/537.36 (KHTML, like Gecko) Chrome/131.0.0.0 Safari/537.36" version="25.0.3">
  <diagram name="Page-1" id="c4acf3e9-155e-7222-9cf6-157b1a14988f">
    <mxGraphModel dx="1105" dy="558" grid="1" gridSize="10" guides="1" tooltips="1" connect="1" arrows="1" fold="1" page="1" pageScale="1" pageWidth="850" pageHeight="1100" background="none" math="0" shadow="0">
      <root>
        <mxCell id="0" />
        <mxCell id="1" parent="0" />
        <mxCell id="smKg85moRq429MoKaY7p-3" value="Game Collection" style="shape=umlFrame;whiteSpace=wrap;html=1;pointerEvents=0;width=110;height=30;" vertex="1" parent="1">
          <mxGeometry x="90" y="70" width="750" height="670" as="geometry" />
        </mxCell>
        <mxCell id="smKg85moRq429MoKaY7p-4" value="games" style="swimlane;fontStyle=1;align=center;verticalAlign=top;childLayout=stackLayout;horizontal=1;startSize=26;horizontalStack=0;resizeParent=1;resizeParentMax=0;resizeLast=0;collapsible=1;marginBottom=0;whiteSpace=wrap;html=1;" vertex="1" parent="1">
          <mxGeometry x="480" y="120" width="330" height="240" as="geometry">
            <mxRectangle x="345" y="90" width="80" height="30" as="alternateBounds" />
          </mxGeometry>
        </mxCell>
        <mxCell id="smKg85moRq429MoKaY7p-5" value="- title: std::string&lt;div&gt;- releaseDate: std::string&lt;/div&gt;&lt;div&gt;- price: double&lt;/div&gt;&lt;div&gt;- rating: char&lt;/div&gt;" style="text;strokeColor=none;fillColor=none;align=left;verticalAlign=top;spacingLeft=4;spacingRight=4;overflow=hidden;rotatable=0;points=[[0,0.5],[1,0.5]];portConstraint=eastwest;whiteSpace=wrap;html=1;" vertex="1" parent="smKg85moRq429MoKaY7p-4">
          <mxGeometry y="26" width="330" height="64" as="geometry" />
        </mxCell>
        <mxCell id="smKg85moRq429MoKaY7p-6" value="" style="line;strokeWidth=1;fillColor=none;align=left;verticalAlign=middle;spacingTop=-1;spacingLeft=3;spacingRight=3;rotatable=0;labelPosition=right;points=[];portConstraint=eastwest;strokeColor=inherit;" vertex="1" parent="smKg85moRq429MoKaY7p-4">
          <mxGeometry y="90" width="330" height="8" as="geometry" />
        </mxCell>
        <mxCell id="smKg85moRq429MoKaY7p-7" value="&lt;div&gt;+ operator&amp;lt;&amp;lt;(std::ostream&amp;amp;, const games&amp;amp;): std::ostream&amp;amp;&lt;/div&gt;&lt;div&gt;+ setTitle(std::string): void&lt;/div&gt;&lt;div&gt;+ setReleaseDate(std::string): void&lt;/div&gt;&lt;div&gt;+ setPrice(double): void&lt;/div&gt;&lt;div&gt;+ setRating(char): void&lt;/div&gt;&lt;div&gt;+ getTitle(): std::string&amp;nbsp;&lt;/div&gt;&lt;div&gt;+ getReleaseDate(): std::string&lt;/div&gt;&lt;div&gt;+ getPrice(): double&lt;/div&gt;&lt;div&gt;+ getRating(): char&lt;/div&gt;" style="text;strokeColor=none;fillColor=none;align=left;verticalAlign=top;spacingLeft=4;spacingRight=4;overflow=hidden;rotatable=0;points=[[0,0.5],[1,0.5]];portConstraint=eastwest;whiteSpace=wrap;html=1;" vertex="1" parent="smKg85moRq429MoKaY7p-4">
          <mxGeometry y="98" width="330" height="142" as="geometry" />
        </mxCell>
        <mxCell id="smKg85moRq429MoKaY7p-8" value="GameCollection" style="swimlane;fontStyle=1;align=center;verticalAlign=top;childLayout=stackLayout;horizontal=1;startSize=26;horizontalStack=0;resizeParent=1;resizeParentMax=0;resizeLast=0;collapsible=1;marginBottom=0;whiteSpace=wrap;html=1;" vertex="1" parent="1">
          <mxGeometry x="100" y="120" width="220" height="160" as="geometry" />
        </mxCell>
        <mxCell id="smKg85moRq429MoKaY7p-9" value="- gameCollection: std::vector&amp;lt;games&amp;gt;" style="text;strokeColor=none;fillColor=none;align=left;verticalAlign=top;spacingLeft=4;spacingRight=4;overflow=hidden;rotatable=0;points=[[0,0.5],[1,0.5]];portConstraint=eastwest;whiteSpace=wrap;html=1;" vertex="1" parent="smKg85moRq429MoKaY7p-8">
          <mxGeometry y="26" width="220" height="24" as="geometry" />
        </mxCell>
        <mxCell id="smKg85moRq429MoKaY7p-10" value="" style="line;strokeWidth=1;fillColor=none;align=left;verticalAlign=middle;spacingTop=-1;spacingLeft=3;spacingRight=3;rotatable=0;labelPosition=right;points=[];portConstraint=eastwest;strokeColor=inherit;" vertex="1" parent="smKg85moRq429MoKaY7p-8">
          <mxGeometry y="50" width="220" height="8" as="geometry" />
        </mxCell>
        <mxCell id="smKg85moRq429MoKaY7p-11" value="+ addGame(): void&amp;nbsp;&lt;div&gt;+ displayGames(): void&lt;/div&gt;&lt;div&gt;+ removeGame(std::string): void&lt;/div&gt;" style="text;strokeColor=none;fillColor=none;align=left;verticalAlign=top;spacingLeft=4;spacingRight=4;overflow=hidden;rotatable=0;points=[[0,0.5],[1,0.5]];portConstraint=eastwest;whiteSpace=wrap;html=1;" vertex="1" parent="smKg85moRq429MoKaY7p-8">
          <mxGeometry y="58" width="220" height="102" as="geometry" />
        </mxCell>
        <mxCell id="smKg85moRq429MoKaY7p-16" value="0..*" style="endArrow=open;html=1;endSize=12;startArrow=diamondThin;startSize=14;startFill=0;edgeStyle=orthogonalEdgeStyle;align=left;verticalAlign=bottom;rounded=0;" edge="1" parent="1">
          <mxGeometry x="-0.1111" y="10" relative="1" as="geometry">
            <mxPoint x="320" y="120" as="sourcePoint" />
            <mxPoint x="480" y="120" as="targetPoint" />
            <mxPoint as="offset" />
          </mxGeometry>
        </mxCell>
      </root>
    </mxGraphModel>
  </diagram>
</mxfile>
